{
  "accessors": [
    {
      "bufferView": 3,
      "componentType": 5126,
      "count": 1545,
      "max": [
        7.14463996887207,
        1.174239993095398,
        0.020790599286556244
      ],
      "min": [
        -7.14463996887207,
        -1.7867100238800049,
        -10.15310001373291
      ],
      "type": "VEC3"
    },
    {
      "bufferView": 3,
      "byteOffset": 18540,
      "componentType": 5126,
      "count": 1545,
      "max": [
        1.0,
        0.9996009469032288,
        0.9999856948852539
      ],
      "min": [
        -1.0,
        -0.9982067942619324,
        -0.9999995231628418
      ],
      "type": "VEC3"
    },
    {
      "bufferView": 4,
      "componentType": 5126,
      "count": 1545,
      "max": [
        0.45098039507865906,
        0.45098039507865906,
        0.45098039507865906,
        1.0
      ],
      "min": [
        0.20000000298023224,
        0.20000000298023224,
        0.20000000298023224,
        1.0
      ],
      "type": "VEC4"
    },
    {
      "bufferView": 2,
      "componentType": 5126,
      "count": 1545,
      "max": [
        0.9951171875,
        1.134521484375
      ],
      "min": [
        0.06536865234375,
        0.02001953125
      ],
      "type": "VEC2"
    },
    {
      "bufferView": 1,
      "componentType": 5125,
      "count": 5844,
      "type": "SCALAR"
    },
    {
      "bufferView": 3,
      "byteOffset": 37080,
      "componentType": 5126,
      "count": 9,
      "max": [
        1.2999999523162842,
        1.164720058441162,
        -7.58381986618042
      ],
      "min": [
        0.21042600274085999,
        1.1055500507354736,
        -9.008580207824707
      ],
      "type": "VEC3"
    },
    {
      "bufferView": 3,
      "byteOffset": 37188,
      "componentType": 5126,
      "count": 9,
      "max": [
        -4.5275101001607254e-05,
        0.999159574508667,
        0.044302426278591156
      ],
      "min": [
        -0.00046969452523626387,
        0.9990181922912598,
        0.040990691632032394
      ],
      "type": "VEC3"
    },
    {
      "bufferView": 4,
      "byteOffset": 24720,
      "componentType": 5126,
      "count": 9,
      "max": [
        0.45098039507865906,
        0.45098039507865906,
        0.45098039507865906,
        1.0
      ],
      "min": [
        0.4000000059604645,
        0.4000000059604645,
        0.4000000059604645,
        1.0
      ],
      "type": "VEC4"
    },
    {
      "bufferView": 2,
      "byteOffset": 12360,
      "componentType": 5126,
      "count": 9,
      "max": [
        0.98388671875,
        1.6748046875
      ],
      "min": [
        0.015869140625,
        -0.6552734375
      ],
      "type": "VEC2"
    },
    {
      "bufferView": 1,
      "byteOffset": 23376,
      "componentType": 5125,
      "count": 24,
      "type": "SCALAR"
    },
    {
      "bufferView": 5,
      "componentType": 5126,
      "count": 23,
      "max": [
        1.0,
        2.368315676903876e-08,
        1.0,
        0.0,
        2.9767745601816387e-08,
        1.0000001192092896,
        6.185301515415631e-08,
        0.0,
        1.0,
        1.7253864825761411e-07,
        1.0,
        0.0,
        3.3782899379730225,
        0.029962295666337013,
        4.506616592407227,
        1.0
      ],
      "min": [
        -0.7071065306663513,
        -1.6677627456829214e-07,
        -1.0,
        0.0,
        -9.327768779598955e-09,
        -1.0000001192092896,
        -2.3841846541472478e-07,
        0.0,
        -1.0,
        -4.874256731568494e-08,
        -0.7071065902709961,
        0.0,
        -12.354629516601563,
        -0.029962053522467613,
        -4.506616592407227,
        1.0
      ],
      "type": "MAT4"
    },
    {
      "bufferView": 0,
      "componentType": 5123,
      "count": 1545,
      "type": "VEC4"
    },
    {
      "bufferView": 4,
      "byteOffset": 24864,
      "componentType": 5126,
      "count": 1545,
      "max": [
        1.0,
        0.5,
        0.30000001192092896,
        0.15000000596046448
      ],
      "min": [
        0.36000001430511475,
        0.0,
        0.0,
        0.0
      ],
      "type": "VEC4"
    },
    {
      "bufferView": 0,
      "byteOffset": 12360,
      "componentType": 5123,
      "count": 9,
      "type": "VEC4"
    },
    {
      "bufferView": 4,
      "byteOffset": 49584,
      "componentType": 5126,
      "count": 9,
      "max": [
        1.0,
        0.5,
        0.0,
        0.0
      ],
      "min": [
        0.5,
        0.0,
        0.0,
        0.0
      ],
      "type": "VEC4"
    }
  ],
  "asset": {
    "extras": {
      "author": "elephantsarecool (https://sketchfab.com/elephantsarecool)",
      "license": "CC-BY-4.0 (http://creativecommons.org/licenses/by/4.0/)",
      "source": "https://sketchfab.com/3d-models/wii-balance-board-b32accb435f3460b82543ce97625463f",
      "title": "Wii Balance Board"
    },
    "generator": "Sketchfab-17.3.0",
    "version": "2.0"
  },
  "bufferViews": [
    {
      "buffer": 0,
      "byteLength": 12432,
      "byteStride": 8,
      "name": "shortBufferViews",
      "target": 34962
    },
    {
      "buffer": 0,
      "byteLength": 23472,
      "byteOffset": 12432,
      "name": "floatBufferViews",
      "target": 34963
    },
    {
      "buffer": 0,
      "byteLength": 12432,
      "byteOffset": 35904,
      "byteStride": 8,
      "name": "floatBufferViews",
      "target": 34962
    },
    {
      "buffer": 0,
      "byteLength": 37296,
      "byteOffset": 48336,
      "byteStride": 12,
      "name": "floatBufferViews",
      "target": 34962
    },
    {
      "buffer": 0,
      "byteLength": 49728,
      "byteOffset": 85632,
      "byteStride": 16,
      "name": "floatBufferViews",
      "target": 34962
    },
    {
      "buffer": 0,
      "byteLength": 1472,
      "byteOffset": 135360,
      "name": "floatBufferViews"
    }
  ],
  "buffers": [
    {
      "byteLength": 136832,
      "uri": "scene.bin"
    }
  ],
  "images": [
    {
      "uri": "textures/sfx_phong2_S_CUS_0xa4001001___A_OFF____VTC_baseColor.png"
    },
    {
      "uri": "textures/sfx_phong3_S_CUS_0xa4001001___A_OFF____VTC_baseColor.png"
    }
  ],
  "materials": [
    {
      "doubleSided": true,
      "name": "sfx_phong2_S_CUS_0xa4001001___A_OFF____VTC",
      "pbrMetallicRoughness": {
        "baseColorTexture": {
          "index": 0
        },
        "metallicFactor": 0.0,
        "roughnessFactor": 0.8929713596497552
      }
    },
    {
      "doubleSided": true,
      "name": "sfx_phong3_S_CUS_0xa4001001___A_OFF____VTC",
      "pbrMetallicRoughness": {
        "baseColorTexture": {
          "index": 1
        },
        "metallicFactor": 0.0,
        "roughnessFactor": 0.8929713596497552
      }
    }
  ],
  "meshes": [
    {
      "name": "barancerShape_sfx_phong2_S_CUS_0xa4001001___A_OFF____VTC__0",
      "primitives": [
        {
          "attributes": {
            "COLOR_0": 2,
            "JOINTS_0": 11,
            "NORMAL": 1,
            "POSITION": 0,
            "TEXCOORD_0": 3,
            "TEXCOORD_1": 3,
            "WEIGHTS_0": 12
          },
          "indices": 4,
          "material": 0,
          "mode": 4
        }
      ]
    },
    {
      "name": "barancerShape_sfx_phong3_S_CUS_0xa4001001___A_OFF____VTC__0",
      "primitives": [
        {
          "attributes": {
            "COLOR_0": 7,
            "JOINTS_0": 13,
            "NORMAL": 6,
            "POSITION": 5,
            "TEXCOORD_0": 8,
            "TEXCOORD_1": 8,
            "WEIGHTS_0": 14
          },
          "indices": 9,
          "material": 1,
          "mode": 4
        }
      ]
    }
  ],
  "nodes": [
    {
      "children": [
        1
      ],
      "matrix": [
        1.0,
        0.0,
        0.0,
        0.0,
        0.0,
        2.220446049250313e-16,
        -1.0,
        0.0,
        0.0,
        1.0,
        2.220446049250313e-16,
        0.0,
        0.0,
        0.0,
        0.0,
        1.0
      ],
      "name": "Sketchfab_model"
    },
    {
      "children": [
        2
      ],
      "matrix": [
        0.02539999969303608,
        0.0,
        0.0,
        0.0,
        0.0,
        0.0,
        0.02539999969303608,
        0.0,
        0.0,
        -0.02539999969303608,
        0.0,
        0.0,
        0.0,
        0.0,
        0.0,
        1.0
      ],
      "name": "b3147c0477a64bf0ab8bc74f8b761dbf.fbx"
    },
    {
      "children": [
        3
      ],
      "name": "RootNode"
    },
    {
      "children": [
        4,
        6,
        8,
        5,
        7
      ],
      "name": "Object_3"
    },
    {
      "children": [
        9
      ],
      "name": "_rootJoint"
    },
    {
      "matrix": [
        1.0000000000000002,
        0.0,
        5.551115123125783e-17,
        0.0,
        5.5511151231257815e-17,
        6.123233995736766e-17,
        -1.0,
        0.0,
        -3.3990776836172276e-33,
        1.0000000000000002,
        6.123233995736767e-17,
        0.0,
        -1.7763568394002505e-15,
        3.469446951953614e-18,
        0.0,
        1.0
      ],
      "name": "Object_5"
    },
    {
      "mesh": 0,
      "name": "Object_6",
      "skin": 0
    },
    {
      "matrix": [
        1.0,
        0.0,
        0.0,
        0.0,
        0.0,
        6.123233995736766e-17,
        -1.0,
        0.0,
        0.0,
        1.0,
        6.123233995736766e-17,
        0.0,
        0.0,
        0.0,
        0.0,
        1.0
      ],
      "name": "Object_7"
    },
    {
      "mesh": 1,
      "name": "Object_8",
      "skin": 0
    },
    {
      "children": [
        10
      ],
      "name": "balancer_00",
      "rotation": [
        -0.7071068286895752,
        -0.0,
        0.0,
        0.7071068286895752
      ]
    },
    {
      "children": [
        11
      ],
      "name": "trans_01"
    },
    {
      "children": [
        12,
        23
      ],
      "name": "HipN_02",
      "rotation": [
        0.5,
        0.5,
        0.5,
        0.5
      ],
      "translation": [
        0.0,
        3.3782899379730225,
        -0.029961999505758286
      ]
    },
    {
      "children": [
        13
      ],
      "name": "back_bone01_03",
      "rotation": [
        1.8746996965264928e-33,
        0.0,
        0.0,
        1.0
      ]
    },
    {
      "children": [
        14
      ],
      "name": "back_bone02_04",
      "rotation": [
        1.8746996965264928e-33,
        0.0,
        0.0,
        1.0
      ],
      "translation": [
        1.712470293045044,
        0.0,
        0.0
      ]
    },
    {
      "children": [
        15,
        18,
        21
      ],
      "name": "back_bone03_05",
      "rotation": [
        1.8746996965264928e-33,
        0.0,
        0.0,
        1.0
      ],
      "translation": [
        1.6453795433044434,
        0.0,
        2.465190328815662e-32
      ]
    },
    {
      "children": [
        16
      ],
      "name": "L_arm01_06",
      "rotation": [
        -2.5240767254075536e-09,
        -0.3826833963394165,
        -6.0936611312456535e-09,
        0.9238795638084412
      ],
      "translation": [
        0.8253302574157715,
        3.469446951953614e-18,
        4.480000019073486
      ]
    },
    {
      "children": [
        17
      ],
      "name": "L_arm02_07",
      "rotation": [
        1.6463600482907736e-09,
        -8.94069742685133e-08,
        3.732561371094789e-09,
        1.0
      ],
      "translation": [
        1.5999975204467773,
        1.4901161193847656e-08,
        4.76837158203125e-07
      ]
    },
    {
      "name": "Z_L_arm_08",
      "rotation": [
        -1.928910225990066e-10,
        7.450580596923828e-08,
        -1.9287514640975445e-10,
        1.0
      ],
      "translation": [
        2.24002742767334,
        3.725290298461914e-09,
        -2.86102294921875e-05
      ]
    },
    {
      "children": [
        19
      ],
      "name": "R_arm01_09",
      "rotation": [
        1.2631041101940355e-08,
        0.3826834261417389,
        1.087824408330107e-08,
        0.9238795638084412
      ],
      "translation": [
        0.8253302574157715,
        0.0,
        -4.480000019073486
      ]
    },
    {
      "children": [
        20
      ],
      "name": "R_arm02_010",
      "rotation": [
        8.782850219366358e-16,
        -2.9802322387695313e-08,
        -3.319673425039582e-10,
        1.0
      ],
      "translation": [
        1.5999984741210938,
        -4.470348358154297e-08,
        -7.152557373046875e-07
      ]
    },
    {
      "name": "Z_R_arm_011",
      "rotation": [
        4.656612873077393e-10,
        3.6075045873287966e-16,
        -1.546442973676676e-10,
        1.0
      ],
      "translation": [
        2.24002742767334,
        3.166496753692627e-08,
        2.7894973754882813e-05
      ]
    },
    {
      "children": [
        22
      ],
      "name": "back_bone04_012",
      "rotation": [
        1.8746996965264928e-33,
        0.0,
        0.0,
        1.0
      ],
      "translation": [
        1.6208100318908691,
        3.469446951953614e-18,
        -2.465190328815662e-32
      ]
    },
    {
      "name": "Z_back_bone_013",
      "rotation": [
        1.8746996965264928e-33,
        0.0,
        0.0,
        1.0
      ],
      "translation": [
        1.4453401565551758,
        0.0,
        0.0
      ]
    },
    {
      "children": [
        24,
        27,
        30
      ],
      "name": "hip_014",
      "rotation": [
        2.980232594040899e-08,
        1.0,
        -1.4901166522918174e-08,
        1.1920928955078125e-07
      ]
    },
    {
      "children": [
        25
      ],
      "name": "L_foot01_015",
      "rotation": [
        0.9238795042037964,
        -3.0564066832994286e-08,
        -0.38268351554870605,
        8.411336693825433e-08
      ],
      "translation": [
        0.9049694538116455,
        -5.159527063369751e-07,
        -3.9000000953674316
      ]
    },
    {
      "children": [
        26
      ],
      "name": "L_foot02_016",
      "rotation": [
        6.17418893789079e-10,
        -5.960463056453591e-08,
        1.9790491467830407e-09,
        1.0
      ],
      "translation": [
        1.7999964952468872,
        -6.854534149169922e-07,
        -4.76837158203125e-07
      ]
    },
    {
      "name": "Z_L_foot_017",
      "rotation": [
        1.1698374213775509e-10,
        1.387846146370532e-16,
        5.760725230175012e-11,
        1.0
      ],
      "translation": [
        1.9200005531311035,
        7.022172212600708e-07,
        5.245208740234375e-06
      ]
    },
    {
      "children": [
        28
      ],
      "name": "R_foot01_018",
      "rotation": [
        0.9238796234130859,
        2.2582264946890973e-08,
        0.38268327713012695,
        3.5000599751811023e-08
      ],
      "translation": [
        0.9049704074859619,
        4.116445779800415e-07,
        3.8999996185302734
      ]
    },
    {
      "children": [
        29
      ],
      "name": "R_foot02_019",
      "rotation": [
        -5.2683528650732114e-09,
        4.514519908045114e-16,
        3.870810783013212e-09,
        1.0
      ],
      "translation": [
        1.7999963760375977,
        5.029141902923584e-08,
        0.0
      ]
    },
    {
      "name": "Z_R_foot_020",
      "rotation": [
        1.0536710171038521e-08,
        7.450580596923828e-08,
        -1.4319084584712982e-08,
        1.0
      ],
      "translation": [
        1.9200010299682617,
        3.334134817123413e-07,
        -6.198883056640625e-06
      ]
    },
    {
      "name": "Z_hip_021",
      "rotation": [
        7.4505766001209395e-09,
        -7.4505797087454084e-09,
        7.4505734914964705e-09,
        1.0
      ],
      "translation": [
        2.560001850128174,
        -1.5273690223693848e-07,
        -6.103519467615115e-07
      ]
    }
  ],
  "samplers": [
    {
      "magFilter": 9729,
      "minFilter": 9987,
      "wrapS": 10497,
      "wrapT": 10497
    },
    {
      "magFilter": 9729,
      "minFilter": 9987,
      "wrapS": 10497,
      "wrapT": 33071
    }
  ],
  "scene": 0,
  "scenes": [
    {
      "name": "Sketchfab_Scene",
      "nodes": [
        0
      ]
    }
  ],
  "skins": [
    {
      "inverseBindMatrices": 10,
      "joints": [
        4,
        9,
        10,
        11,
        12,
        13,
        14,
        15,
        16,
        17,
        18,
        19,
        20,
        21,
        22,
        23,
        24,
        25,
        26,
        27,
        28,
        29,
        30
      ],
      "skeleton": 4
    }
  ],
  "textures": [
    {
      "sampler": 0,
      "source": 0
    },
    {
      "sampler": 1,
      "source": 1
    }
  ]
}
